<svg width="339" height="46" viewBox="0 0 339 46" fill="none" xmlns="http://www.w3.org/2000/svg">
<path d="M11.55 0.0999993C14.3833 0.0999993 16.6333 0.366666 18.3 0.899998C19.9667 1.4 21.1667 2.3 21.9 3.6C22.6667 4.9 23.05 6.73333 23.05 9.1C23.05 11.5667 22.5833 13.45 21.65 14.75C20.75 16.05 19.2667 16.8 17.2 17V17.2C19.7667 17.4333 21.55 18.3333 22.55 19.9C23.5833 21.4667 24.1 23.6333 24.1 26.4C24.1 28.7667 23.7333 30.6 23 31.9C22.2667 33.2 21.0833 34.1167 19.45 34.65C17.85 35.15 15.7333 35.4 13.1 35.4C11.1333 35.4 9.43333 35.3833 8 35.35C6.6 35.35 5.3 35.3167 4.1 35.25C2.9 35.1833 1.65 35.1 0.35 35L1.05 31.5C1.78333 31.5333 3.16667 31.5667 5.2 31.6C7.26667 31.6333 9.66667 31.65 12.4 31.65C14.2333 31.65 15.6667 31.5 16.7 31.2C17.7667 30.8667 18.5167 30.2667 18.95 29.4C19.4167 28.5333 19.65 27.2833 19.65 25.65C19.65 23.85 19.4167 22.4667 18.95 21.5C18.4833 20.5333 17.7 19.85 16.6 19.45C15.5 19.05 14 18.8333 12.1 18.8H1V15.45H12.05C13.7167 15.4167 15.0333 15.25 16 14.95C17 14.6167 17.7167 14.0333 18.15 13.2C18.5833 12.3333 18.8 11.1333 18.8 9.6C18.8 8.03333 18.5667 6.83333 18.1 6C17.6333 5.16667 16.85 4.6 15.75 4.3C14.6833 4 13.2167 3.85 11.35 3.85C9.71667 3.85 8.25 3.85 6.95 3.85C5.65 3.85 4.5 3.86667 3.5 3.9C2.53333 3.9 1.71667 3.93333 1.05 4L0.35 0.499997C1.51667 0.366666 2.61667 0.283332 3.65 0.249997C4.71667 0.183332 5.86667 0.149999 7.1 0.149999C8.36667 0.116666 9.85 0.0999993 11.55 0.0999993ZM4.65 0.499997V35H0.35V0.499997H4.65ZM35.2059 -2.38419e-06L35.1559 28.3C35.1559 29.3667 35.4392 30.1833 36.0059 30.75C36.6059 31.2833 37.4392 31.55 38.5059 31.55H40.8559L41.3559 34.8C41.0559 34.9333 40.6225 35.05 40.0559 35.15C39.5225 35.25 38.9559 35.3167 38.3559 35.35C37.7892 35.4167 37.3059 35.45 36.9059 35.45C35.1059 35.45 33.6559 34.9167 32.5559 33.85C31.4892 32.7833 30.9559 31.25 30.9559 29.25V-2.38419e-06H35.2059ZM56.0496 10.05C58.8496 10.05 61.0829 10.4667 62.7496 11.3C64.4496 12.1333 65.6663 13.5 66.3996 15.4C67.1329 17.2667 67.4996 19.75 67.4996 22.85C67.4996 25.95 67.1329 28.45 66.3996 30.35C65.6663 32.2167 64.4496 33.5667 62.7496 34.4C61.0829 35.2333 58.8496 35.65 56.0496 35.65C53.2829 35.65 51.0496 35.2333 49.3496 34.4C47.6829 33.5667 46.4663 32.2167 45.6996 30.35C44.9663 28.45 44.5996 25.95 44.5996 22.85C44.5996 19.75 44.9663 17.2667 45.6996 15.4C46.4663 13.5 47.6829 12.1333 49.3496 11.3C51.0496 10.4667 53.2829 10.05 56.0496 10.05ZM56.0496 13.65C54.2829 13.65 52.8829 13.9333 51.8496 14.5C50.8496 15.0333 50.1329 15.9667 49.6996 17.3C49.2663 18.6333 49.0496 20.4833 49.0496 22.85C49.0496 25.2167 49.2663 27.0667 49.6996 28.4C50.1329 29.7333 50.8496 30.6833 51.8496 31.25C52.8829 31.7833 54.2829 32.05 56.0496 32.05C57.8163 32.05 59.2163 31.7833 60.2496 31.25C61.2829 30.6833 62.0163 29.7333 62.4496 28.4C62.8829 27.0667 63.0996 25.2167 63.0996 22.85C63.0996 20.4833 62.8829 18.6333 62.4496 17.3C62.0163 15.9667 61.2829 15.0333 60.2496 14.5C59.2163 13.9333 57.8163 13.65 56.0496 13.65ZM83.8176 10.05C86.4176 10.05 88.4676 10.3167 89.9676 10.85C91.5009 11.3833 92.5842 12.2167 93.2176 13.35C93.8842 14.4833 94.2176 15.9667 94.2176 17.8C94.2176 19.5667 93.8842 21.0333 93.2176 22.2C92.5842 23.3333 91.5009 24.1833 89.9676 24.75C88.4342 25.2833 86.3676 25.55 83.7676 25.55C81.1676 25.55 79.1009 25.2833 77.5676 24.75C76.0676 24.1833 74.9842 23.3333 74.3176 22.2C73.6842 21.0667 73.3676 19.6167 73.3676 17.85C73.3676 16.0167 73.6842 14.5333 74.3176 13.4C74.9842 12.2333 76.0842 11.3833 77.6176 10.85C79.1509 10.3167 81.2176 10.05 83.8176 10.05ZM83.7676 13.3C81.3342 13.3 79.6342 13.65 78.6676 14.35C77.7342 15.0167 77.2676 16.1667 77.2676 17.8C77.2676 19.4 77.7342 20.55 78.6676 21.25C79.6342 21.95 81.3342 22.3 83.7676 22.3C86.2342 22.3 87.9342 21.95 88.8676 21.25C89.8009 20.55 90.2676 19.4 90.2676 17.8C90.2676 16.1667 89.8009 15.0167 88.8676 14.35C87.9342 13.65 86.2342 13.3 83.7676 13.3ZM97.0676 10.65L96.8176 13L90.6176 13.5L88.8676 10.65H97.0676ZM76.9176 23.95L79.3676 24.3C78.8009 24.8 78.4176 25.4167 78.2176 26.15C78.0176 26.85 78.0676 27.5 78.3676 28.1C78.7009 28.7 79.3842 29.0833 80.4176 29.25L89.5176 30.7C91.8176 31.0333 93.4176 31.75 94.3176 32.85C95.2176 33.95 95.6676 35.5167 95.6676 37.55C95.6676 39.45 95.3009 40.95 94.5676 42.05C93.8676 43.15 92.6676 43.9333 90.9676 44.4C89.2676 44.8667 86.9676 45.1 84.0676 45.1C81.8676 45.1 80.0176 44.9667 78.5176 44.7C77.0176 44.4667 75.8009 44.05 74.8676 43.45C73.9676 42.8833 73.3176 42.1333 72.9176 41.2C72.5176 40.2667 72.3176 39.1 72.3176 37.7C72.3176 36.6333 72.4676 35.7333 72.7676 35C73.1009 34.3 73.6009 33.6667 74.2676 33.1C74.9676 32.5333 75.8676 31.9833 76.9676 31.45L79.9676 29.8L81.9176 30.5L79.4676 32.35C78.8009 32.85 78.2342 33.35 77.7676 33.85C77.3342 34.3167 77.0009 34.8167 76.7676 35.35C76.5676 35.9167 76.4676 36.5833 76.4676 37.35C76.4676 38.4833 76.6842 39.35 77.1176 39.95C77.5509 40.55 78.3176 40.95 79.4176 41.15C80.5176 41.3833 82.0509 41.5 84.0176 41.5C85.9842 41.5 87.5009 41.3833 88.5676 41.15C89.6676 40.9167 90.4342 40.5 90.8676 39.9C91.3009 39.3 91.5176 38.45 91.5176 37.35C91.5176 36.5167 91.4009 35.8833 91.1676 35.45C90.9676 35.0167 90.5676 34.6833 89.9676 34.45C89.3676 34.2167 88.4842 34.0167 87.3176 33.85L78.5676 32.65C77.5342 32.5167 76.7009 32.1833 76.0676 31.65C75.4676 31.1167 75.0509 30.4833 74.8176 29.75C74.5842 29.0167 74.5176 28.2833 74.6176 27.55C74.7176 26.7833 74.9676 26.0833 75.3676 25.45C75.7676 24.7833 76.2842 24.2833 76.9176 23.95ZM111.65 10.05C114.25 10.05 116.3 10.3167 117.8 10.85C119.333 11.3833 120.416 12.2167 121.05 13.35C121.716 14.4833 122.05 15.9667 122.05 17.8C122.05 19.5667 121.716 21.0333 121.05 22.2C120.416 23.3333 119.333 24.1833 117.8 24.75C116.266 25.2833 114.2 25.55 111.6 25.55C109 25.55 106.933 25.2833 105.4 24.75C103.9 24.1833 102.816 23.3333 102.15 22.2C101.516 21.0667 101.2 19.6167 101.2 17.85C101.2 16.0167 101.516 14.5333 102.15 13.4C102.816 12.2333 103.916 11.3833 105.45 10.85C106.983 10.3167 109.05 10.05 111.65 10.05ZM111.6 13.3C109.166 13.3 107.466 13.65 106.5 14.35C105.566 15.0167 105.1 16.1667 105.1 17.8C105.1 19.4 105.566 20.55 106.5 21.25C107.466 21.95 109.166 22.3 111.6 22.3C114.066 22.3 115.766 21.95 116.7 21.25C117.633 20.55 118.1 19.4 118.1 17.8C118.1 16.1667 117.633 15.0167 116.7 14.35C115.766 13.65 114.066 13.3 111.6 13.3ZM124.9 10.65L124.65 13L118.45 13.5L116.7 10.65H124.9ZM104.75 23.95L107.2 24.3C106.633 24.8 106.25 25.4167 106.05 26.15C105.85 26.85 105.9 27.5 106.2 28.1C106.533 28.7 107.216 29.0833 108.25 29.25L117.35 30.7C119.65 31.0333 121.25 31.75 122.15 32.85C123.05 33.95 123.5 35.5167 123.5 37.55C123.5 39.45 123.133 40.95 122.4 42.05C121.7 43.15 120.5 43.9333 118.8 44.4C117.1 44.8667 114.8 45.1 111.9 45.1C109.7 45.1 107.85 44.9667 106.35 44.7C104.85 44.4667 103.633 44.05 102.7 43.45C101.8 42.8833 101.15 42.1333 100.75 41.2C100.35 40.2667 100.15 39.1 100.15 37.7C100.15 36.6333 100.3 35.7333 100.6 35C100.933 34.3 101.433 33.6667 102.1 33.1C102.8 32.5333 103.7 31.9833 104.8 31.45L107.8 29.8L109.75 30.5L107.3 32.35C106.633 32.85 106.066 33.35 105.6 33.85C105.166 34.3167 104.833 34.8167 104.6 35.35C104.4 35.9167 104.3 36.5833 104.3 37.35C104.3 38.4833 104.516 39.35 104.95 39.95C105.383 40.55 106.15 40.95 107.25 41.15C108.35 41.3833 109.883 41.5 111.85 41.5C113.816 41.5 115.333 41.3833 116.4 41.15C117.5 40.9167 118.266 40.5 118.7 39.9C119.133 39.3 119.35 38.45 119.35 37.35C119.35 36.5167 119.233 35.8833 119 35.45C118.8 35.0167 118.4 34.6833 117.8 34.45C117.2 34.2167 116.316 34.0167 115.15 33.85L106.4 32.65C105.366 32.5167 104.533 32.1833 103.9 31.65C103.3 31.1167 102.883 30.4833 102.65 29.75C102.416 29.0167 102.35 28.2833 102.45 27.55C102.55 26.7833 102.8 26.0833 103.2 25.45C103.6 24.7833 104.116 24.2833 104.75 23.95ZM151.48 10.65L141.73 36.35C141.33 37.4167 140.83 38.4667 140.23 39.5C139.63 40.5333 138.897 41.4667 138.03 42.3C137.197 43.1667 136.197 43.8667 135.03 44.4C133.897 44.9333 132.58 45.2333 131.08 45.3L130.68 42.5C132.647 41.8667 134.164 41.0167 135.23 39.95C136.297 38.8833 137.147 37.5833 137.78 36.05L138.98 33.15C139.247 32.4833 139.514 31.75 139.78 30.95C140.047 30.15 140.297 29.4333 140.53 28.8L146.88 10.65H151.48ZM131.43 10.65L137.88 28.8C138.047 29.3 138.214 29.8 138.38 30.3C138.547 30.7667 138.68 31.25 138.78 31.75H139.93L138.53 35H137.23C136.897 35 136.58 34.9 136.28 34.7C136.014 34.5 135.83 34.2333 135.73 33.9L126.88 10.65H131.43ZM167.995 0.0999993C170.829 0.0999993 173.079 0.366666 174.745 0.899998C176.412 1.4 177.612 2.3 178.345 3.6C179.112 4.9 179.495 6.73333 179.495 9.1C179.495 11.5667 179.029 13.45 178.095 14.75C177.195 16.05 175.712 16.8 173.645 17V17.2C176.212 17.4333 177.995 18.3333 178.995 19.9C180.029 21.4667 180.545 23.6333 180.545 26.4C180.545 28.7667 180.179 30.6 179.445 31.9C178.712 33.2 177.529 34.1167 175.895 34.65C174.295 35.15 172.179 35.4 169.545 35.4C167.579 35.4 165.879 35.3833 164.445 35.35C163.045 35.35 161.745 35.3167 160.545 35.25C159.345 35.1833 158.095 35.1 156.795 35L157.495 31.5C158.229 31.5333 159.612 31.5667 161.645 31.6C163.712 31.6333 166.112 31.65 168.845 31.65C170.679 31.65 172.112 31.5 173.145 31.2C174.212 30.8667 174.962 30.2667 175.395 29.4C175.862 28.5333 176.095 27.2833 176.095 25.65C176.095 23.85 175.862 22.4667 175.395 21.5C174.929 20.5333 174.145 19.85 173.045 19.45C171.945 19.05 170.445 18.8333 168.545 18.8H157.445V15.45H168.495C170.162 15.4167 171.479 15.25 172.445 14.95C173.445 14.6167 174.162 14.0333 174.595 13.2C175.029 12.3333 175.245 11.1333 175.245 9.6C175.245 8.03333 175.012 6.83333 174.545 6C174.079 5.16667 173.295 4.6 172.195 4.3C171.129 4 169.662 3.85 167.795 3.85C166.162 3.85 164.695 3.85 163.395 3.85C162.095 3.85 160.945 3.86667 159.945 3.9C158.979 3.9 158.162 3.93333 157.495 4L156.795 0.499997C157.962 0.366666 159.062 0.283332 160.095 0.249997C161.162 0.183332 162.312 0.149999 163.545 0.149999C164.812 0.116666 166.295 0.0999993 167.995 0.0999993ZM161.095 0.499997V35H156.795V0.499997H161.095ZM198.851 10.05C200.651 10.05 202.168 10.3 203.401 10.8C204.668 11.2667 205.618 12.0667 206.251 13.2C206.885 14.3333 207.201 15.8833 207.201 17.85V35H203.851L203.201 29.7L202.901 29.15V17.85C202.901 16.35 202.551 15.2833 201.851 14.65C201.185 13.9833 199.885 13.65 197.951 13.65C196.685 13.65 195.085 13.7167 193.151 13.85C191.251 13.9833 189.368 14.1333 187.501 14.3L187.101 11.15C188.235 10.95 189.468 10.7667 190.801 10.6C192.168 10.4333 193.551 10.3 194.951 10.2C196.351 10.1 197.651 10.05 198.851 10.05ZM205.201 20L205.151 23.2L193.501 23.25C192.335 23.2833 191.518 23.6 191.051 24.2C190.585 24.7667 190.351 25.5667 190.351 26.6V28.15C190.351 29.4167 190.651 30.35 191.251 30.95C191.851 31.5167 192.818 31.8 194.151 31.8C195.085 31.8 196.135 31.6333 197.301 31.3C198.501 30.9333 199.701 30.3833 200.901 29.65C202.101 28.9167 203.201 27.9833 204.201 26.85V30C203.835 30.4667 203.301 31.0167 202.601 31.65C201.935 32.25 201.118 32.85 200.151 33.45C199.218 34.0167 198.168 34.5 197.001 34.9C195.868 35.2667 194.635 35.45 193.301 35.45C191.868 35.45 190.601 35.2 189.501 34.7C188.401 34.1667 187.535 33.4 186.901 32.4C186.301 31.3667 186.001 30.1167 186.001 28.65V26C186.001 24.1 186.585 22.6333 187.751 21.6C188.951 20.5333 190.618 20 192.751 20H205.201ZM229.593 10.05C233.993 10.05 236.193 12.2833 236.193 16.75V35H231.943V17.95C231.943 16.3167 231.676 15.2 231.143 14.6C230.609 13.9667 229.709 13.65 228.443 13.65C226.943 13.65 225.443 14.0167 223.943 14.75C222.443 15.4833 220.659 16.4833 218.593 17.75L218.393 14.7C220.293 13.2333 222.176 12.1 224.043 11.3C225.909 10.4667 227.759 10.05 229.593 10.05ZM218.393 10.65L218.743 15.3L219.043 16.05V35H214.793V10.65H218.393ZM258.645 10.05C263.045 10.05 265.245 12.2833 265.245 16.75V35H260.995V17.95C260.995 16.3167 260.729 15.2 260.195 14.6C259.662 13.9667 258.762 13.65 257.495 13.65C255.995 13.65 254.495 14.0167 252.995 14.75C251.495 15.4833 249.712 16.4833 247.645 17.75L247.445 14.7C249.345 13.2333 251.229 12.1 253.095 11.3C254.962 10.4667 256.812 10.05 258.645 10.05ZM247.445 10.65L247.795 15.3L248.095 16.05V35H243.845V10.65H247.445ZM282.898 10.05C286.565 10.05 289.215 10.7167 290.848 12.05C292.515 13.3833 293.348 15.3667 293.348 18C293.381 20.1667 292.931 21.8667 291.998 23.1C291.065 24.3 289.581 24.9 287.548 24.9H273.348V21.6H286.448C287.548 21.6 288.265 21.2333 288.598 20.5C288.931 19.7333 289.098 18.9 289.098 18C289.065 16.4333 288.598 15.3167 287.698 14.65C286.798 13.9833 285.265 13.65 283.098 13.65C281.331 13.65 279.931 13.9167 278.898 14.45C277.898 14.95 277.181 15.85 276.748 17.15C276.348 18.4167 276.148 20.2 276.148 22.5C276.148 25.1 276.398 27.0833 276.898 28.45C277.431 29.8167 278.265 30.75 279.398 31.25C280.531 31.75 282.031 32 283.898 32C285.198 32 286.615 31.95 288.148 31.85C289.715 31.7167 291.115 31.5667 292.348 31.4L292.798 34.25C292.031 34.55 291.081 34.8 289.948 35C288.848 35.2 287.698 35.35 286.498 35.45C285.331 35.55 284.281 35.6 283.348 35.6C280.548 35.6 278.298 35.1833 276.598 34.35C274.898 33.4833 273.648 32.1167 272.848 30.25C272.081 28.35 271.698 25.85 271.698 22.75C271.698 19.55 272.081 17.0333 272.848 15.2C273.648 13.3333 274.865 12.0167 276.498 11.25C278.165 10.45 280.298 10.05 282.898 10.05ZM303.054 10.65L303.604 15.3L304.004 16.05V35H299.754V10.65H303.054ZM315.004 10.05L314.504 14.05H313.104C311.67 14.05 310.237 14.35 308.804 14.95C307.37 15.5167 305.62 16.3333 303.554 17.4L303.204 14.75C305.004 13.2833 306.804 12.1333 308.604 11.3C310.437 10.4667 312.204 10.05 313.904 10.05H315.004ZM327.922 10.05C328.989 10.05 330.122 10.0833 331.322 10.15C332.522 10.2167 333.705 10.3 334.872 10.4C336.072 10.5 337.172 10.6333 338.172 10.8L337.822 13.9C336.289 13.8333 334.739 13.7833 333.172 13.75C331.639 13.6833 330.105 13.65 328.572 13.65C327.072 13.6167 325.889 13.65 325.022 13.75C324.155 13.85 323.522 14.1167 323.122 14.55C322.755 14.9833 322.572 15.7167 322.572 16.75C322.572 18.0167 322.872 18.85 323.472 19.25C324.072 19.65 324.955 19.9833 326.122 20.25L333.222 21.85C335.155 22.3167 336.572 23.0333 337.472 24C338.405 24.9667 338.872 26.4833 338.872 28.55C338.872 30.55 338.489 32.05 337.722 33.05C336.989 34.05 335.855 34.7167 334.322 35.05C332.789 35.3833 330.839 35.55 328.472 35.55C327.605 35.55 326.305 35.5167 324.572 35.45C322.872 35.3833 320.989 35.1833 318.922 34.85L319.222 31.75C320.022 31.7833 320.872 31.8333 321.772 31.9C322.672 31.9333 323.605 31.95 324.572 31.95C325.572 31.95 326.589 31.95 327.622 31.95C329.455 31.95 330.889 31.8667 331.922 31.7C332.955 31.5333 333.689 31.2167 334.122 30.75C334.555 30.25 334.772 29.5167 334.772 28.55C334.772 27.35 334.422 26.55 333.722 26.15C333.022 25.75 332.089 25.4167 330.922 25.15L323.922 23.55C322.589 23.2167 321.522 22.7833 320.722 22.25C319.922 21.6833 319.339 20.9667 318.972 20.1C318.605 19.2 318.422 18.0833 318.422 16.75C318.422 14.85 318.755 13.4167 319.422 12.45C320.089 11.4833 321.122 10.8333 322.522 10.5C323.922 10.1667 325.722 10.0167 327.922 10.05Z" fill="#3A3635"/>
</svg>
