<svg width="527" height="46" viewBox="0 0 527 46" fill="none" xmlns="http://www.w3.org/2000/svg">
<path d="M11.55 0.0999993C14.3833 0.0999993 16.6333 0.366666 18.3 0.899998C19.9667 1.4 21.1667 2.3 21.9 3.6C22.6667 4.9 23.05 6.73333 23.05 9.1C23.05 11.5667 22.5833 13.45 21.65 14.75C20.75 16.05 19.2667 16.8 17.2 17V17.2C19.7667 17.4333 21.55 18.3333 22.55 19.9C23.5833 21.4667 24.1 23.6333 24.1 26.4C24.1 28.7667 23.7333 30.6 23 31.9C22.2667 33.2 21.0833 34.1167 19.45 34.65C17.85 35.15 15.7333 35.4 13.1 35.4C11.1333 35.4 9.43333 35.3833 8 35.35C6.6 35.35 5.3 35.3167 4.1 35.25C2.9 35.1833 1.65 35.1 0.35 35L1.05 31.5C1.78333 31.5333 3.16667 31.5667 5.2 31.6C7.26667 31.6333 9.66667 31.65 12.4 31.65C14.2333 31.65 15.6667 31.5 16.7 31.2C17.7667 30.8667 18.5167 30.2667 18.95 29.4C19.4167 28.5333 19.65 27.2833 19.65 25.65C19.65 23.85 19.4167 22.4667 18.95 21.5C18.4833 20.5333 17.7 19.85 16.6 19.45C15.5 19.05 14 18.8333 12.1 18.8H1V15.45H12.05C13.7167 15.4167 15.0333 15.25 16 14.95C17 14.6167 17.7167 14.0333 18.15 13.2C18.5833 12.3333 18.8 11.1333 18.8 9.6C18.8 8.03333 18.5667 6.83333 18.1 6C17.6333 5.16667 16.85 4.6 15.75 4.3C14.6833 4 13.2167 3.85 11.35 3.85C9.71667 3.85 8.25 3.85 6.95 3.85C5.65 3.85 4.5 3.86667 3.5 3.9C2.53333 3.9 1.71667 3.93333 1.05 4L0.35 0.499997C1.51667 0.366666 2.61667 0.283332 3.65 0.249997C4.71667 0.183332 5.86667 0.149999 7.1 0.149999C8.36667 0.116666 9.85 0.0999993 11.55 0.0999993ZM4.65 0.499997V35H0.35V0.499997H4.65ZM35.2059 -2.38419e-06L35.1559 28.3C35.1559 29.3667 35.4392 30.1833 36.0059 30.75C36.6059 31.2833 37.4392 31.55 38.5059 31.55H40.8559L41.3559 34.8C41.0559 34.9333 40.6225 35.05 40.0559 35.15C39.5225 35.25 38.9559 35.3167 38.3559 35.35C37.7892 35.4167 37.3059 35.45 36.9059 35.45C35.1059 35.45 33.6559 34.9167 32.5559 33.85C31.4892 32.7833 30.9559 31.25 30.9559 29.25V-2.38419e-06H35.2059ZM56.0496 10.05C58.8496 10.05 61.0829 10.4667 62.7496 11.3C64.4496 12.1333 65.6663 13.5 66.3996 15.4C67.1329 17.2667 67.4996 19.75 67.4996 22.85C67.4996 25.95 67.1329 28.45 66.3996 30.35C65.6663 32.2167 64.4496 33.5667 62.7496 34.4C61.0829 35.2333 58.8496 35.65 56.0496 35.65C53.2829 35.65 51.0496 35.2333 49.3496 34.4C47.6829 33.5667 46.4663 32.2167 45.6996 30.35C44.9663 28.45 44.5996 25.95 44.5996 22.85C44.5996 19.75 44.9663 17.2667 45.6996 15.4C46.4663 13.5 47.6829 12.1333 49.3496 11.3C51.0496 10.4667 53.2829 10.05 56.0496 10.05ZM56.0496 13.65C54.2829 13.65 52.8829 13.9333 51.8496 14.5C50.8496 15.0333 50.1329 15.9667 49.6996 17.3C49.2663 18.6333 49.0496 20.4833 49.0496 22.85C49.0496 25.2167 49.2663 27.0667 49.6996 28.4C50.1329 29.7333 50.8496 30.6833 51.8496 31.25C52.8829 31.7833 54.2829 32.05 56.0496 32.05C57.8163 32.05 59.2163 31.7833 60.2496 31.25C61.2829 30.6833 62.0163 29.7333 62.4496 28.4C62.8829 27.0667 63.0996 25.2167 63.0996 22.85C63.0996 20.4833 62.8829 18.6333 62.4496 17.3C62.0163 15.9667 61.2829 15.0333 60.2496 14.5C59.2163 13.9333 57.8163 13.65 56.0496 13.65ZM83.8176 10.05C86.4176 10.05 88.4676 10.3167 89.9676 10.85C91.5009 11.3833 92.5842 12.2167 93.2176 13.35C93.8842 14.4833 94.2176 15.9667 94.2176 17.8C94.2176 19.5667 93.8842 21.0333 93.2176 22.2C92.5842 23.3333 91.5009 24.1833 89.9676 24.75C88.4342 25.2833 86.3676 25.55 83.7676 25.55C81.1676 25.55 79.1009 25.2833 77.5676 24.75C76.0676 24.1833 74.9842 23.3333 74.3176 22.2C73.6842 21.0667 73.3676 19.6167 73.3676 17.85C73.3676 16.0167 73.6842 14.5333 74.3176 13.4C74.9842 12.2333 76.0842 11.3833 77.6176 10.85C79.1509 10.3167 81.2176 10.05 83.8176 10.05ZM83.7676 13.3C81.3342 13.3 79.6342 13.65 78.6676 14.35C77.7342 15.0167 77.2676 16.1667 77.2676 17.8C77.2676 19.4 77.7342 20.55 78.6676 21.25C79.6342 21.95 81.3342 22.3 83.7676 22.3C86.2342 22.3 87.9342 21.95 88.8676 21.25C89.8009 20.55 90.2676 19.4 90.2676 17.8C90.2676 16.1667 89.8009 15.0167 88.8676 14.35C87.9342 13.65 86.2342 13.3 83.7676 13.3ZM97.0676 10.65L96.8176 13L90.6176 13.5L88.8676 10.65H97.0676ZM76.9176 23.95L79.3676 24.3C78.8009 24.8 78.4176 25.4167 78.2176 26.15C78.0176 26.85 78.0676 27.5 78.3676 28.1C78.7009 28.7 79.3842 29.0833 80.4176 29.25L89.5176 30.7C91.8176 31.0333 93.4176 31.75 94.3176 32.85C95.2176 33.95 95.6676 35.5167 95.6676 37.55C95.6676 39.45 95.3009 40.95 94.5676 42.05C93.8676 43.15 92.6676 43.9333 90.9676 44.4C89.2676 44.8667 86.9676 45.1 84.0676 45.1C81.8676 45.1 80.0176 44.9667 78.5176 44.7C77.0176 44.4667 75.8009 44.05 74.8676 43.45C73.9676 42.8833 73.3176 42.1333 72.9176 41.2C72.5176 40.2667 72.3176 39.1 72.3176 37.7C72.3176 36.6333 72.4676 35.7333 72.7676 35C73.1009 34.3 73.6009 33.6667 74.2676 33.1C74.9676 32.5333 75.8676 31.9833 76.9676 31.45L79.9676 29.8L81.9176 30.5L79.4676 32.35C78.8009 32.85 78.2342 33.35 77.7676 33.85C77.3342 34.3167 77.0009 34.8167 76.7676 35.35C76.5676 35.9167 76.4676 36.5833 76.4676 37.35C76.4676 38.4833 76.6842 39.35 77.1176 39.95C77.5509 40.55 78.3176 40.95 79.4176 41.15C80.5176 41.3833 82.0509 41.5 84.0176 41.5C85.9842 41.5 87.5009 41.3833 88.5676 41.15C89.6676 40.9167 90.4342 40.5 90.8676 39.9C91.3009 39.3 91.5176 38.45 91.5176 37.35C91.5176 36.5167 91.4009 35.8833 91.1676 35.45C90.9676 35.0167 90.5676 34.6833 89.9676 34.45C89.3676 34.2167 88.4842 34.0167 87.3176 33.85L78.5676 32.65C77.5342 32.5167 76.7009 32.1833 76.0676 31.65C75.4676 31.1167 75.0509 30.4833 74.8176 29.75C74.5842 29.0167 74.5176 28.2833 74.6176 27.55C74.7176 26.7833 74.9676 26.0833 75.3676 25.45C75.7676 24.7833 76.2842 24.2833 76.9176 23.95ZM116.998 20.75V24H101.748V20.75H116.998ZM137.609 10.05C140.609 10.05 142.826 11.0333 144.259 13C145.693 14.9333 146.409 18.1833 146.409 22.75C146.409 24.85 146.226 26.7 145.859 28.3C145.526 29.9 144.943 31.25 144.109 32.35C143.309 33.4167 142.209 34.2333 140.809 34.8C139.443 35.3333 137.709 35.6 135.609 35.6C134.776 35.6 133.876 35.5667 132.909 35.5C131.943 35.4333 130.959 35.3167 129.959 35.15C128.959 35.0167 127.976 34.85 127.009 34.65C126.076 34.4167 125.209 34.15 124.409 33.85L127.809 30.95C128.709 31.2167 129.593 31.4333 130.459 31.6C131.359 31.7667 132.226 31.8833 133.059 31.95C133.926 31.9833 134.743 32 135.509 32C137.076 31.9667 138.326 31.6667 139.259 31.1C140.226 30.5333 140.926 29.5833 141.359 28.25C141.793 26.8833 142.009 25.05 142.009 22.75C142.009 20.5167 141.843 18.75 141.509 17.45C141.176 16.1167 140.576 15.1667 139.709 14.6C138.876 14.0333 137.676 13.75 136.109 13.75C134.776 13.75 133.509 14.1167 132.309 14.85C131.109 15.55 129.726 16.5167 128.159 17.75L127.859 14.9C128.859 13.8333 129.876 12.95 130.909 12.25C131.976 11.5167 133.076 10.9667 134.209 10.6C135.343 10.2333 136.476 10.05 137.609 10.05ZM128.659 -2.38419e-06V9.1C128.659 10.1333 128.626 11.0833 128.559 11.95C128.526 12.8167 128.409 13.7 128.209 14.6L128.609 15.3L128.659 34.05L124.409 33.85V-2.38419e-06H128.659ZM164.525 10.05C166.325 10.05 167.842 10.3 169.075 10.8C170.342 11.2667 171.292 12.0667 171.925 13.2C172.558 14.3333 172.875 15.8833 172.875 17.85V35H169.525L168.875 29.7L168.575 29.15V17.85C168.575 16.35 168.225 15.2833 167.525 14.65C166.858 13.9833 165.558 13.65 163.625 13.65C162.358 13.65 160.758 13.7167 158.825 13.85C156.925 13.9833 155.042 14.1333 153.175 14.3L152.775 11.15C153.908 10.95 155.142 10.7667 156.475 10.6C157.842 10.4333 159.225 10.3 160.625 10.2C162.025 10.1 163.325 10.05 164.525 10.05ZM170.875 20L170.825 23.2L159.175 23.25C158.008 23.2833 157.192 23.6 156.725 24.2C156.258 24.7667 156.025 25.5667 156.025 26.6V28.15C156.025 29.4167 156.325 30.35 156.925 30.95C157.525 31.5167 158.492 31.8 159.825 31.8C160.758 31.8 161.808 31.6333 162.975 31.3C164.175 30.9333 165.375 30.3833 166.575 29.65C167.775 28.9167 168.875 27.9833 169.875 26.85V30C169.508 30.4667 168.975 31.0167 168.275 31.65C167.608 32.25 166.792 32.85 165.825 33.45C164.892 34.0167 163.842 34.5 162.675 34.9C161.542 35.2667 160.308 35.45 158.975 35.45C157.542 35.45 156.275 35.2 155.175 34.7C154.075 34.1667 153.208 33.4 152.575 32.4C151.975 31.3667 151.675 30.1167 151.675 28.65V26C151.675 24.1 152.258 22.6333 153.425 21.6C154.625 20.5333 156.292 20 158.425 20H170.875ZM195.266 10.05C199.666 10.05 201.866 12.2833 201.866 16.75V35H197.616V17.95C197.616 16.3167 197.35 15.2 196.816 14.6C196.283 13.9667 195.383 13.65 194.116 13.65C192.616 13.65 191.116 14.0167 189.616 14.75C188.116 15.4833 186.333 16.4833 184.266 17.75L184.066 14.7C185.966 13.2333 187.85 12.1 189.716 11.3C191.583 10.4667 193.433 10.05 195.266 10.05ZM184.066 10.65L184.416 15.3L184.716 16.05V35H180.466V10.65H184.066ZM224.319 10.05C228.719 10.05 230.919 12.2833 230.919 16.75V35H226.669V17.95C226.669 16.3167 226.402 15.2 225.869 14.6C225.336 13.9667 224.436 13.65 223.169 13.65C221.669 13.65 220.169 14.0167 218.669 14.75C217.169 15.4833 215.386 16.4833 213.319 17.75L213.119 14.7C215.019 13.2333 216.902 12.1 218.769 11.3C220.636 10.4667 222.486 10.05 224.319 10.05ZM213.119 10.65L213.469 15.3L213.769 16.05V35H209.519V10.65H213.119ZM248.572 10.05C252.239 10.05 254.889 10.7167 256.522 12.05C258.189 13.3833 259.022 15.3667 259.022 18C259.055 20.1667 258.605 21.8667 257.672 23.1C256.739 24.3 255.255 24.9 253.222 24.9H239.022V21.6H252.122C253.222 21.6 253.939 21.2333 254.272 20.5C254.605 19.7333 254.772 18.9 254.772 18C254.739 16.4333 254.272 15.3167 253.372 14.65C252.472 13.9833 250.939 13.65 248.772 13.65C247.005 13.65 245.605 13.9167 244.572 14.45C243.572 14.95 242.855 15.85 242.422 17.15C242.022 18.4167 241.822 20.2 241.822 22.5C241.822 25.1 242.072 27.0833 242.572 28.45C243.105 29.8167 243.939 30.75 245.072 31.25C246.205 31.75 247.705 32 249.572 32C250.872 32 252.289 31.95 253.822 31.85C255.389 31.7167 256.789 31.5667 258.022 31.4L258.472 34.25C257.705 34.55 256.755 34.8 255.622 35C254.522 35.2 253.372 35.35 252.172 35.45C251.005 35.55 249.955 35.6 249.022 35.6C246.222 35.6 243.972 35.1833 242.272 34.35C240.572 33.4833 239.322 32.1167 238.522 30.25C237.755 28.35 237.372 25.85 237.372 22.75C237.372 19.55 237.755 17.0333 238.522 15.2C239.322 13.3333 240.539 12.0167 242.172 11.25C243.839 10.45 245.972 10.05 248.572 10.05ZM268.727 10.65L269.277 15.3L269.677 16.05V35H265.427V10.65H268.727ZM280.677 10.05L280.177 14.05H278.777C277.344 14.05 275.911 14.35 274.477 14.95C273.044 15.5167 271.294 16.3333 269.227 17.4L268.877 14.75C270.677 13.2833 272.477 12.1333 274.277 11.3C276.111 10.4667 277.877 10.05 279.577 10.05H280.677ZM298.151 20.75V24H282.901V20.75H298.151ZM315.312 10.05C317.912 10.05 319.962 10.3167 321.462 10.85C322.995 11.3833 324.078 12.2167 324.712 13.35C325.378 14.4833 325.712 15.9667 325.712 17.8C325.712 19.5667 325.378 21.0333 324.712 22.2C324.078 23.3333 322.995 24.1833 321.462 24.75C319.928 25.2833 317.862 25.55 315.262 25.55C312.662 25.55 310.595 25.2833 309.062 24.75C307.562 24.1833 306.478 23.3333 305.812 22.2C305.178 21.0667 304.862 19.6167 304.862 17.85C304.862 16.0167 305.178 14.5333 305.812 13.4C306.478 12.2333 307.578 11.3833 309.112 10.85C310.645 10.3167 312.712 10.05 315.312 10.05ZM315.262 13.3C312.828 13.3 311.128 13.65 310.162 14.35C309.228 15.0167 308.762 16.1667 308.762 17.8C308.762 19.4 309.228 20.55 310.162 21.25C311.128 21.95 312.828 22.3 315.262 22.3C317.728 22.3 319.428 21.95 320.362 21.25C321.295 20.55 321.762 19.4 321.762 17.8C321.762 16.1667 321.295 15.0167 320.362 14.35C319.428 13.65 317.728 13.3 315.262 13.3ZM328.562 10.65L328.312 13L322.112 13.5L320.362 10.65H328.562ZM308.412 23.95L310.862 24.3C310.295 24.8 309.912 25.4167 309.712 26.15C309.512 26.85 309.562 27.5 309.862 28.1C310.195 28.7 310.878 29.0833 311.912 29.25L321.012 30.7C323.312 31.0333 324.912 31.75 325.812 32.85C326.712 33.95 327.162 35.5167 327.162 37.55C327.162 39.45 326.795 40.95 326.062 42.05C325.362 43.15 324.162 43.9333 322.462 44.4C320.762 44.8667 318.462 45.1 315.562 45.1C313.362 45.1 311.512 44.9667 310.012 44.7C308.512 44.4667 307.295 44.05 306.362 43.45C305.462 42.8833 304.812 42.1333 304.412 41.2C304.012 40.2667 303.812 39.1 303.812 37.7C303.812 36.6333 303.962 35.7333 304.262 35C304.595 34.3 305.095 33.6667 305.762 33.1C306.462 32.5333 307.362 31.9833 308.462 31.45L311.462 29.8L313.412 30.5L310.962 32.35C310.295 32.85 309.728 33.35 309.262 33.85C308.828 34.3167 308.495 34.8167 308.262 35.35C308.062 35.9167 307.962 36.5833 307.962 37.35C307.962 38.4833 308.178 39.35 308.612 39.95C309.045 40.55 309.812 40.95 310.912 41.15C312.012 41.3833 313.545 41.5 315.512 41.5C317.478 41.5 318.995 41.3833 320.062 41.15C321.162 40.9167 321.928 40.5 322.362 39.9C322.795 39.3 323.012 38.45 323.012 37.35C323.012 36.5167 322.895 35.8833 322.662 35.45C322.462 35.0167 322.062 34.6833 321.462 34.45C320.862 34.2167 319.978 34.0167 318.812 33.85L310.062 32.65C309.028 32.5167 308.195 32.1833 307.562 31.65C306.962 31.1167 306.545 30.4833 306.312 29.75C306.078 29.0167 306.012 28.2833 306.112 27.55C306.212 26.7833 306.462 26.0833 306.862 25.45C307.262 24.7833 307.778 24.2833 308.412 23.95ZM343.347 10.05C347.014 10.05 349.664 10.7167 351.297 12.05C352.964 13.3833 353.797 15.3667 353.797 18C353.831 20.1667 353.381 21.8667 352.447 23.1C351.514 24.3 350.031 24.9 347.997 24.9H333.797V21.6H346.897C347.997 21.6 348.714 21.2333 349.047 20.5C349.381 19.7333 349.547 18.9 349.547 18C349.514 16.4333 349.047 15.3167 348.147 14.65C347.247 13.9833 345.714 13.65 343.547 13.65C341.781 13.65 340.381 13.9167 339.347 14.45C338.347 14.95 337.631 15.85 337.197 17.15C336.797 18.4167 336.597 20.2 336.597 22.5C336.597 25.1 336.847 27.0833 337.347 28.45C337.881 29.8167 338.714 30.75 339.847 31.25C340.981 31.75 342.481 32 344.347 32C345.647 32 347.064 31.95 348.597 31.85C350.164 31.7167 351.564 31.5667 352.797 31.4L353.247 34.25C352.481 34.55 351.531 34.8 350.397 35C349.297 35.2 348.147 35.35 346.947 35.45C345.781 35.55 344.731 35.6 343.797 35.6C340.997 35.6 338.747 35.1833 337.047 34.35C335.347 33.4833 334.097 32.1167 333.297 30.25C332.531 28.35 332.147 25.85 332.147 22.75C332.147 19.55 332.531 17.0333 333.297 15.2C334.097 13.3333 335.314 12.0167 336.947 11.25C338.614 10.45 340.747 10.05 343.347 10.05ZM375.003 10.05C379.403 10.05 381.603 12.2833 381.603 16.75V35H377.353V17.95C377.353 16.3167 377.086 15.2 376.553 14.6C376.019 13.9667 375.119 13.65 373.853 13.65C372.353 13.65 370.853 14.0167 369.353 14.75C367.853 15.4833 366.069 16.4833 364.003 17.75L363.803 14.7C365.703 13.2333 367.586 12.1 369.453 11.3C371.319 10.4667 373.169 10.05 375.003 10.05ZM363.803 10.65L364.153 15.3L364.453 16.05V35H360.203V10.65H363.803ZM399.255 10.05C402.922 10.05 405.572 10.7167 407.205 12.05C408.872 13.3833 409.705 15.3667 409.705 18C409.739 20.1667 409.289 21.8667 408.355 23.1C407.422 24.3 405.939 24.9 403.905 24.9H389.705V21.6H402.805C403.905 21.6 404.622 21.2333 404.955 20.5C405.289 19.7333 405.455 18.9 405.455 18C405.422 16.4333 404.955 15.3167 404.055 14.65C403.155 13.9833 401.622 13.65 399.455 13.65C397.689 13.65 396.289 13.9167 395.255 14.45C394.255 14.95 393.539 15.85 393.105 17.15C392.705 18.4167 392.505 20.2 392.505 22.5C392.505 25.1 392.755 27.0833 393.255 28.45C393.789 29.8167 394.622 30.75 395.755 31.25C396.889 31.75 398.389 32 400.255 32C401.555 32 402.972 31.95 404.505 31.85C406.072 31.7167 407.472 31.5667 408.705 31.4L409.155 34.25C408.389 34.55 407.439 34.8 406.305 35C405.205 35.2 404.055 35.35 402.855 35.45C401.689 35.55 400.639 35.6 399.705 35.6C396.905 35.6 394.655 35.1833 392.955 34.35C391.255 33.4833 390.005 32.1167 389.205 30.25C388.439 28.35 388.055 25.85 388.055 22.75C388.055 19.55 388.439 17.0333 389.205 15.2C390.005 13.3333 391.222 12.0167 392.855 11.25C394.522 10.45 396.655 10.05 399.255 10.05ZM419.411 10.65L419.961 15.3L420.361 16.05V35H416.111V10.65H419.411ZM431.361 10.05L430.861 14.05H429.461C428.028 14.05 426.594 14.35 425.161 14.95C423.728 15.5167 421.978 16.3333 419.911 17.4L419.561 14.75C421.361 13.2833 423.161 12.1333 424.961 11.3C426.794 10.4667 428.561 10.05 430.261 10.05H431.361ZM447.679 10.05C449.479 10.05 450.996 10.3 452.229 10.8C453.496 11.2667 454.446 12.0667 455.079 13.2C455.713 14.3333 456.029 15.8833 456.029 17.85V35H452.679L452.029 29.7L451.729 29.15V17.85C451.729 16.35 451.379 15.2833 450.679 14.65C450.013 13.9833 448.713 13.65 446.779 13.65C445.513 13.65 443.913 13.7167 441.979 13.85C440.079 13.9833 438.196 14.1333 436.329 14.3L435.929 11.15C437.063 10.95 438.296 10.7667 439.629 10.6C440.996 10.4333 442.379 10.3 443.779 10.2C445.179 10.1 446.479 10.05 447.679 10.05ZM454.029 20L453.979 23.2L442.329 23.25C441.163 23.2833 440.346 23.6 439.879 24.2C439.413 24.7667 439.179 25.5667 439.179 26.6V28.15C439.179 29.4167 439.479 30.35 440.079 30.95C440.679 31.5167 441.646 31.8 442.979 31.8C443.913 31.8 444.963 31.6333 446.129 31.3C447.329 30.9333 448.529 30.3833 449.729 29.65C450.929 28.9167 452.029 27.9833 453.029 26.85V30C452.663 30.4667 452.129 31.0167 451.429 31.65C450.763 32.25 449.946 32.85 448.979 33.45C448.046 34.0167 446.996 34.5 445.829 34.9C444.696 35.2667 443.463 35.45 442.129 35.45C440.696 35.45 439.429 35.2 438.329 34.7C437.229 34.1667 436.363 33.4 435.729 32.4C435.129 31.3667 434.829 30.1167 434.829 28.65V26C434.829 24.1 435.413 22.6333 436.579 21.6C437.779 20.5333 439.446 20 441.579 20H454.029ZM469.721 3.45V28.3C469.721 29.4667 469.971 30.3 470.471 30.8C470.971 31.3 471.821 31.55 473.021 31.55H476.721L477.221 34.8C476.687 34.9333 476.071 35.05 475.371 35.15C474.671 35.25 473.987 35.3167 473.321 35.35C472.654 35.4167 472.121 35.45 471.721 35.45C469.687 35.45 468.137 34.8833 467.071 33.75C466.004 32.6167 465.471 30.9833 465.471 28.85V3.45H469.721ZM477.471 10.65V14H461.071V10.9L465.871 10.65H477.471ZM492.964 10.05C495.764 10.05 497.997 10.4667 499.664 11.3C501.364 12.1333 502.58 13.5 503.314 15.4C504.047 17.2667 504.414 19.75 504.414 22.85C504.414 25.95 504.047 28.45 503.314 30.35C502.58 32.2167 501.364 33.5667 499.664 34.4C497.997 35.2333 495.764 35.65 492.964 35.65C490.197 35.65 487.964 35.2333 486.264 34.4C484.597 33.5667 483.38 32.2167 482.614 30.35C481.88 28.45 481.514 25.95 481.514 22.85C481.514 19.75 481.88 17.2667 482.614 15.4C483.38 13.5 484.597 12.1333 486.264 11.3C487.964 10.4667 490.197 10.05 492.964 10.05ZM492.964 13.65C491.197 13.65 489.797 13.9333 488.764 14.5C487.764 15.0333 487.047 15.9667 486.614 17.3C486.18 18.6333 485.964 20.4833 485.964 22.85C485.964 25.2167 486.18 27.0667 486.614 28.4C487.047 29.7333 487.764 30.6833 488.764 31.25C489.797 31.7833 491.197 32.05 492.964 32.05C494.73 32.05 496.13 31.7833 497.164 31.25C498.197 30.6833 498.93 29.7333 499.364 28.4C499.797 27.0667 500.014 25.2167 500.014 22.85C500.014 20.4833 499.797 18.6333 499.364 17.3C498.93 15.9667 498.197 15.0333 497.164 14.5C496.13 13.9333 494.73 13.65 492.964 13.65ZM514.382 10.65L514.932 15.3L515.332 16.05V35H511.082V10.65H514.382ZM526.332 10.05L525.832 14.05H524.432C522.998 14.05 521.565 14.35 520.132 14.95C518.698 15.5167 516.948 16.3333 514.882 17.4L514.532 14.75C516.332 13.2833 518.132 12.1333 519.932 11.3C521.765 10.4667 523.532 10.05 525.232 10.05H526.332Z" fill="#3A3635"/>
</svg>
