<svg width="48" height="48" viewBox="0 0 48 48" fill="none" xmlns="http://www.w3.org/2000/svg">
<path d="M42 14H6C5.46957 14 4.96086 13.7893 4.58579 13.4142C4.21071 13.0391 4 12.5304 4 12C4 11.4696 4.21071 10.9609 4.58579 10.5858C4.96086 10.2107 5.46957 10 6 10H42C42.5304 10 43.0391 10.2107 43.4142 10.5858C43.7893 10.9609 44 11.4696 44 12C44 12.5304 43.7893 13.0391 43.4142 13.4142C43.0391 13.7893 42.5304 14 42 14ZM34 22H6C5.46957 22 4.96086 21.7893 4.58579 21.4142C4.21071 21.0391 4 20.5304 4 20C4 19.4696 4.21071 18.9609 4.58579 18.5858C4.96086 18.2107 5.46957 18 6 18H34C34.5304 18 35.0391 18.2107 35.4142 18.5858C35.7893 18.9609 36 19.4696 36 20C36 20.5304 35.7893 21.0391 35.4142 21.4142C35.0391 21.7893 34.5304 22 34 22ZM42 30H6C5.46957 30 4.96086 29.7893 4.58579 29.4142C4.21071 29.0391 4 28.5304 4 28C4 27.4696 4.21071 26.9609 4.58579 26.5858C4.96086 26.2107 5.46957 26 6 26H42C42.5304 26 43.0391 26.2107 43.4142 26.5858C43.7893 26.9609 44 27.4696 44 28C44 28.5304 43.7893 29.0391 43.4142 29.4142C43.0391 29.7893 42.5304 30 42 30ZM34 38H6C5.46957 38 4.96086 37.7893 4.58579 37.4142C4.21071 37.0391 4 36.5304 4 36C4 35.4696 4.21071 34.9609 4.58579 34.5858C4.96086 34.2107 5.46957 34 6 34H34C34.5304 34 35.0391 34.2107 35.4142 34.5858C35.7893 34.9609 36 35.4696 36 36C36 36.5304 35.7893 37.0391 35.4142 37.4142C35.0391 37.7893 34.5304 38 34 38Z" fill="#3A3635"/>
</svg>
