<svg width="20" height="20" viewBox="0 0 32 32" fill="none" xmlns="http://www.w3.org/2000/svg">
<path d="M32 16C32 20.2435 30.3143 24.3131 27.3137 27.3137C24.3131 30.3143 20.2435 32 16 32C11.7565 32 7.68687 30.3143 4.68629 27.3137C1.68571 24.3131 0 20.2435 0 16C0 11.7565 1.68571 7.68687 4.68629 4.68629C7.68687 1.68571 11.7565 0 16 0C20.2435 0 24.3131 1.68571 27.3137 4.68629C30.3143 7.68687 32 11.7565 32 16ZM24.06 9.94C23.9171 9.79764 23.747 9.68555 23.5599 9.61043C23.3727 9.53531 23.1723 9.49872 22.9706 9.50282C22.769 9.50693 22.5703 9.55166 22.3863 9.63434C22.2023 9.71701 22.0369 9.83594 21.9 9.984L14.954 18.834L10.768 14.646C10.4836 14.381 10.1076 14.2368 9.71896 14.2437C9.33035 14.2505 8.95958 14.4079 8.68476 14.6828C8.40993 14.9576 8.25251 15.3284 8.24565 15.717C8.23879 16.1056 8.38304 16.4817 8.648 16.766L13.94 22.06C14.0826 22.2023 14.2523 22.3144 14.4392 22.3897C14.626 22.465 14.8261 22.5018 15.0275 22.4981C15.2289 22.4944 15.4275 22.4501 15.6114 22.368C15.7953 22.2858 15.9608 22.1675 16.098 22.02L24.082 12.04C24.3542 11.757 24.5046 11.3786 24.5008 10.9859C24.4971 10.5933 24.3395 10.2178 24.062 9.94H24.06Z" fill="#7ec61f"/>
</svg>
