<svg width="24" height="24" viewBox="0 0 48 48" fill="none" xmlns="http://www.w3.org/2000/svg">
<path fill-rule="evenodd" clip-rule="evenodd" d="M40.954 7.022C40.3968 6.46474 39.7353 6.02269 39.0073 5.7211C38.2793 5.41951 37.499 5.26428 36.711 5.26428C35.923 5.26428 35.1427 5.41951 34.4146 5.7211C33.6866 6.02269 33.0251 6.46474 32.468 7.022L29.402 10.088C28.2849 9.55136 27.0287 9.37493 25.807 9.58309C24.5852 9.79124 23.4583 10.3737 22.582 11.25L21.156 12.678C20.7844 13.0495 20.4896 13.4905 20.2885 13.9759C20.0873 14.4613 19.9838 14.9816 19.9838 15.507C19.9838 16.0324 20.0873 16.5527 20.2885 17.0381C20.4896 17.5235 20.7844 17.9645 21.156 18.336L8.18398 31.306C7.62691 31.8634 7.18511 32.5251 6.88381 33.2533C6.58252 33.9815 6.42762 34.7619 6.42798 35.55V39.15C6.42798 39.7865 6.68084 40.397 7.13092 40.8471C7.58101 41.2971 8.19146 41.55 8.82798 41.55H12.428C14.0187 41.5486 15.5438 40.9155 16.668 39.79L29.64 26.822C30.0114 27.1936 30.4525 27.4884 30.9379 27.6895C31.4233 27.8906 31.9436 27.9941 32.469 27.9941C32.9944 27.9941 33.5147 27.8906 34.0001 27.6895C34.4855 27.4884 34.9265 27.1936 35.298 26.822L36.726 25.392C37.6023 24.5156 38.1847 23.3887 38.3929 22.167C38.601 20.9453 38.4246 19.6891 37.888 18.572L40.954 15.508C41.5112 14.9508 41.9533 14.2894 42.2549 13.5613C42.5565 12.8333 42.7117 12.053 42.7117 11.265C42.7117 10.477 42.5565 9.69669 42.2549 8.96867C41.9533 8.24065 41.5112 7.57917 40.954 7.022ZM11.014 34.134L23.984 21.164L26.812 23.992L13.842 36.964C13.467 37.3391 12.9584 37.5499 12.428 37.55H10.428V35.55C10.4281 35.0196 10.6389 34.511 11.014 34.136V34.134Z" fill="white"/>
</svg>
