<svg width="48" height="48" viewBox="0 0 48 48" fill="none" xmlns="http://www.w3.org/2000/svg">
<path d="M22.49 30H9.50995L5.50995 40H1.19995L14 8H18L30.7999 40H26.49L22.49 30ZM20.8899 26L16 13.77L11.108 26H20.8899ZM42 25.07V24H46V40H42V38.93C40.7837 39.6314 39.4044 40.0005 38.0004 40C36.5964 39.9995 35.2172 39.6296 34.0015 38.9273C32.7858 38.225 31.7763 37.2152 31.0744 35.9992C30.3726 34.7833 30.0031 33.404 30.0031 32C30.0031 30.596 30.3726 29.2167 31.0744 28.0008C31.7763 26.7848 32.7858 25.775 34.0015 25.0727C35.2172 24.3704 36.5964 24.0005 38.0004 24C39.4044 23.9995 40.7837 24.3686 42 25.07ZM38 36C39.0608 36 40.0782 35.5786 40.8284 34.8284C41.5785 34.0783 42 33.0609 42 32C42 30.9391 41.5785 29.9217 40.8284 29.1716C40.0782 28.4214 39.0608 28 38 28C36.9391 28 35.9217 28.4214 35.1715 29.1716C34.4214 29.9217 34 30.9391 34 32C34 33.0609 34.4214 34.0783 35.1715 34.8284C35.9217 35.5786 36.9391 36 38 36Z" fill="#3A3635"/>
</svg>
