<svg width="48" height="48" viewBox="0 0 48 48" fill="none" xmlns="http://www.w3.org/2000/svg">
<path d="M0 6C0 7.5913 0.632141 9.11742 1.75736 10.2426C2.88258 11.3679 4.4087 12 6 12C7.5913 12 9.11742 11.3679 10.2426 10.2426C11.3679 9.11742 12 7.5913 12 6C12 4.4087 11.3679 2.88258 10.2426 1.75736C9.11742 0.632141 7.5913 0 6 0C4.4087 0 2.88258 0.632141 1.75736 1.75736C0.632141 2.88258 0 4.4087 0 6ZM18 42C18 43.5913 18.6321 45.1174 19.7574 46.2426C20.8826 47.3679 22.4087 48 24 48C25.5913 48 27.1174 47.3679 28.2426 46.2426C29.3679 45.1174 30 43.5913 30 42C30 40.4087 29.3679 38.8826 28.2426 37.7574C27.1174 36.6321 25.5913 36 24 36C22.4087 36 20.8826 36.6321 19.7574 37.7574C18.6321 38.8826 18 40.4087 18 42ZM18 24C18 25.5913 18.6321 27.1174 19.7574 28.2426C20.8826 29.3679 22.4087 30 24 30C25.5913 30 27.1174 29.3679 28.2426 28.2426C29.3679 27.1174 30 25.5913 30 24C30 22.4087 29.3679 20.8826 28.2426 19.7574C27.1174 18.6321 25.5913 18 24 18C22.4087 18 20.8826 18.6321 19.7574 19.7574C18.6321 20.8826 18 22.4087 18 24ZM18 6C18 7.5913 18.6321 9.11742 19.7574 10.2426C20.8826 11.3679 22.4087 12 24 12C25.5913 12 27.1174 11.3679 28.2426 10.2426C29.3679 9.11742 30 7.5913 30 6C30 4.4087 29.3679 2.88258 28.2426 1.75736C27.1174 0.632141 25.5913 0 24 0C22.4087 0 20.8826 0.632141 19.7574 1.75736C18.6321 2.88258 18 4.4087 18 6ZM36 6C36 7.5913 36.6321 9.11742 37.7574 10.2426C38.8826 11.3679 40.4087 12 42 12C43.5913 12 45.1174 11.3679 46.2426 10.2426C47.3679 9.11742 48 7.5913 48 6C48 4.4087 47.3679 2.88258 46.2426 1.75736C45.1174 0.632141 43.5913 0 42 0C40.4087 0 38.8826 0.632141 37.7574 1.75736C36.6321 2.88258 36 4.4087 36 6Z" fill="#3A3635"/>
</svg>
