<svg width="24" height="24" viewBox="0 0 24 24" fill="none" xmlns="http://www.w3.org/2000/svg">
<path fill-rule="evenodd" clip-rule="evenodd" d="M7.00003 9C6.80228 9.00004 6.60898 9.05871 6.44457 9.1686C6.28016 9.27848 6.15202 9.43465 6.07635 9.61735C6.00068 9.80005 5.98088 10.0011 6.01945 10.195C6.05802 10.389 6.15322 10.5671 6.29303 10.707L11.293 15.707C11.4806 15.8945 11.7349 15.9998 12 15.9998C12.2652 15.9998 12.5195 15.8945 12.707 15.707L17.707 10.707C17.8468 10.5671 17.942 10.389 17.9806 10.195C18.0192 10.0011 17.9994 9.80005 17.9237 9.61735C17.848 9.43465 17.7199 9.27848 17.5555 9.1686C17.3911 9.05871 17.1978 9.00004 17 9H7.00003Z" fill="#CED1D5"/>
</svg>
