<svg width="48" height="48" viewBox="0 0 48 48" fill="none" xmlns="http://www.w3.org/2000/svg">
<path d="M6 0C2.676 0 0 2.676 0 6V42C0 45.324 2.676 48 6 48H42C45.324 48 48 45.324 48 42V6C48 2.676 45.324 0 42 0H6ZM19.766 12.5C21.026 12.5 21.776 13.1 22.016 14.3L24.942 30.906C25.872 29.676 26.634 28.64 27.234 27.8C28.228 26.3673 29.0871 24.8454 29.8 23.254C30.61 21.544 31.016 20.014 31.016 18.664C31.016 17.854 30.79 17.21 30.34 16.73C29.92 16.22 29.124 15.576 27.954 14.796C29.154 13.266 30.654 12.5 32.454 12.5C33.414 12.5 34.21 12.786 34.84 13.356C35.5 13.926 35.828 14.764 35.828 15.876C35.828 17.736 35.048 20.062 33.488 22.852C31.958 25.612 29.006 29.766 24.626 35.316L20.172 35.628L16.75 16.372H12.25V14.48C13.45 14.09 14.86 13.668 16.48 13.22C18.1 12.74 19.196 12.5 19.766 12.5Z" fill="#3A3635"/>
</svg>
